<svg xmlns="http://www.w3.org/2000/svg" viewBox="0 0 243.2 60.9"><defs><style>.cls-1{fill:#fff}</style></defs><g id="レイヤー_2" data-name="レイヤー 2"><g id="レイヤー_1-2" data-name="レイヤー 1"><path class="cls-1" d="M42.6 47.9H18L13 59.8H0L24.8 1.2h11l24.6 58.6h-13zM38.8 38l-5.6-14.7c-1.2-3.2-2.8-8-3-8l-3 8-5.5 14.7zM67.2 53.8a6 6 0 1 1 6 6 6 6 0 0 1-6-6zM148.8 53.8a6 6 0 1 1 6 6 6 6 0 0 1-6-6zM231.2 53.8a6 6 0 1 1 6 6 6 6 0 0 1-6-6zM129.6 40.6a17.4 17.4 0 0 1-15.5 8.8c-10.7 0-18-8-18-19s7.2-19 18-19a17.3 17.3 0 0 1 14.5 7.3l11.6-3.7A29.3 29.3 0 0 0 114 0C97.3 0 84.2 12.8 84.2 30.5s13 30.4 29.9 30.4A29.3 29.3 0 0 0 141 44.3zM196.6 0c16.8 0 30 12.8 30 30.5s-13.2 30.4-30 30.4-29.9-12.8-29.9-30.4S179.7 0 196.6 0zm0 49.5c10.8 0 18-8.5 18-19 0-10.9-7.2-19-18-19s-18 8.1-18 19 7.3 19 18 19z"/></g></g></svg>